<svg width="200" height="60" viewBox="0 0 200 60" xmlns="http://www.w3.org/2000/svg" aria-labelledby="cosmosx-title">
  <title id="cosmosx-title">COSMOSX IDE</title>
  <defs>
    <linearGradient id="cosmosGradient" x1="0%" y1="0%" x2="100%" y2="100%">
      <stop offset="0%" stop-color="#4dabf7"/>
      <stop offset="50%" stop-color="#7c3aed"/>
      <stop offset="100%" stop-color="#ec4899"/>
    </linearGradient>
    <filter id="glow">
      <feGaussianBlur in="SourceAlpha" stdDeviation="2.5" result="blur"/>
      <feFlood flood-color="#c084fc" result="glowColor"/>
      <feComposite in="glowColor" in2="blur" operator="in" result="softGlow"/>
      <feMerge>
        <feMergeNode in="softGlow"/>
        <feMergeNode in="SourceGraphic"/>
      </feMerge>
    </filter>
  </defs>
  
  <!-- Central cluster -->
  <g transform="translate(30, 30)">
    <circle cx="0" cy="0" r="9" fill="url(#cosmosGradient)" filter="url(#glow)"/>
    <circle cx="0" cy="0" r="5" fill="white"/>
    
    <!-- Connection paths -->
    <g stroke="url(#cosmosGradient)" stroke-width="1.2" stroke-linecap="round">
      <line x1="0" y1="0" x2="20" y2="-15"/>
      <line x1="0" y1="0" x2="18" y2="18"/>
      <line x1="0" y1="0" x2="-22" y2="12"/>
      <line x1="0" y1="0" x2="-15" y2="-20"/>
    </g>
    
    <!-- Branch nodes -->
    <circle cx="20" cy="-15" r="4" fill="#4dabf7" class="node-pulse" style="--i:0"/>
    <circle cx="18" cy="18" r="4" fill="#7c3aed" class="node-pulse" style="--i:1"/>
    <circle cx="-22" cy="12" r="4" fill="#ec4899" class="node-pulse" style="--i:2"/>
    <circle cx="-15" cy="-20" r="4" fill="#10b981" class="node-pulse" style="--i:3"/>
  </g>
  
  <!-- Text logo -->
  <g transform="translate(80, 20)">
    <text x="0" y="18" font-family="'Segoe UI', sans-serif" font-size="20" font-weight="700" fill="url(#cosmosGradient)" letter-spacing="0.5">
      COSMOSX
    </text>
    <text x="0" y="36" font-family="'Segoe UI', sans-serif" font-size="12" font-weight="600" fill="#94a3b8">
      INTERACTIVE STORYTELLING
    </text>
    
    <!-- IDE badge -->
    <rect x="110" y="22" width="35" height="18" rx="4" fill="url(#cosmosGradient)"/>
    <text x="127" y="34" font-family="'Segoe UI', sans-serif" font-size="12" font-weight="700" fill="white" text-anchor="middle">IDE</text>
  </g>
  
  <!-- Code brackets -->
  <g transform="translate(160, 30)" stroke="url(#cosmosGradient)" stroke-width="2">
    <path d="M 0 0 L 8 0 L 8 20 L 0 20" fill="none"/>
    <path d="M 12 0 L 20 0 L 20 20 L 12 20" fill="none"/>
    <line x1="4" y1="10" x2="16" y2="10" stroke-dasharray="3,2"/>
  </g>
  
  <style>
    .node-pulse {
      animation: pulse 2s infinite;
      animation-delay: calc(var(--i) * 0.4s);
    }
    @keyframes pulse {
      0% { r: 3.8; }
      50% { r: 4.2; }
      100% { r: 3.8; }
    }
  </style>
</svg>